<svg width="132" height="24" viewBox="0 0 132 24" fill="none" xmlns="http://www.w3.org/2000/svg">
<path fill-rule="evenodd" clip-rule="evenodd" d="M0.526492 0.120728L0.00292196 0.786427L2.10168 2.72524L12.8876 3.43063L0.526492 0.120728Z" fill="white"/>
<path fill-rule="evenodd" clip-rule="evenodd" d="M3.27222 3.00708L5.23332 4.77276L12.9834 3.58031L3.27222 3.00708Z" fill="white"/>
<path fill-rule="evenodd" clip-rule="evenodd" d="M6.09205 4.84259L7.69883 6.2518L13.0948 3.70082L6.09205 4.84259Z" fill="white"/>
<path fill-rule="evenodd" clip-rule="evenodd" d="M8.38759 6.17521L13.2209 3.79519L9.973 7.51608L8.38759 6.17521Z" fill="white"/>
<path fill-rule="evenodd" clip-rule="evenodd" d="M10.4625 7.29262L13.359 3.87866L11.6834 8.35078L10.4625 7.29262Z" fill="white"/>
<path fill-rule="evenodd" clip-rule="evenodd" d="M13.5115 3.95179L11.8309 8.49764L10.3111 19.6609L12.603 22.4202L13.5944 22.7739L13.5115 3.95179Z" fill="white"/>
<path fill-rule="evenodd" clip-rule="evenodd" d="M26.8047 0.00238173L27.3342 0.663443L25.2526 2.62067L14.4733 3.42105L26.8047 0.00238173Z" fill="white"/>
<path fill-rule="evenodd" clip-rule="evenodd" d="M24.0833 2.91537L22.1378 4.69825L14.3775 3.57413L24.0833 2.91537Z" fill="white"/>
<path fill-rule="evenodd" clip-rule="evenodd" d="M21.2801 4.77583L19.6858 6.19915L14.2676 3.6958L21.2801 4.77583Z" fill="white"/>
<path fill-rule="evenodd" clip-rule="evenodd" d="M19.0015 6.12834L14.1421 3.79102L17.4279 7.48312L19.0015 6.12834Z" fill="white"/>
<path fill-rule="evenodd" clip-rule="evenodd" d="M16.9332 7.26958L14.012 3.87598L15.7217 8.33319L16.9332 7.26958Z" fill="white"/>
<path fill-rule="evenodd" clip-rule="evenodd" d="M13.8538 3.95557L15.5743 8.48117L17.1924 19.6306L14.9249 22.41L13.9419 22.7776L13.8538 3.95557Z" fill="white"/>
<path fill-rule="evenodd" clip-rule="evenodd" d="M122.942 9.76351L122.908 1.9917L123.773 1.98789L126.928 6.7452L130.04 1.96028L130.906 1.95647L130.94 9.72828L130.015 9.73236L129.988 3.67094L126.934 8.27555L123.84 3.69802L123.867 9.75943L122.942 9.76351Z" fill="white"/>
<path fill-rule="evenodd" clip-rule="evenodd" d="M100.858 9.8608L100.823 2.08899L106.882 2.0623L106.886 2.96251L101.782 2.98499L101.792 5.26552L104.866 5.25198L104.87 6.12219L101.796 6.13573L101.809 8.95638L107.24 8.93246L107.244 9.83267L100.858 9.8608Z" fill="white"/>
<path fill-rule="evenodd" clip-rule="evenodd" d="M60.5044 2.08651C61.6683 2.08139 62.625 2.46727 63.3744 3.21415C64.1239 3.99105 64.5161 4.94957 64.5213 6.11984C64.5264 7.29011 64.1428 8.28205 63.4 9.03551C62.6574 9.81898 61.704 10.1833 60.5401 10.1884L60.5361 9.28819C61.4016 9.28438 62.1165 8.98115 62.6809 8.37852C63.2453 7.77588 63.5404 7.02439 63.5363 6.09417C63.5322 5.16395 63.2305 4.41509 62.6906 3.81732C62.121 3.21968 61.4034 2.92276 60.5379 2.92657L60.5342 2.08638L60.5044 2.08651ZM60.5404 10.2484C59.3765 10.2535 58.4197 9.86765 57.6704 9.12077C56.9208 8.34387 56.5286 7.38535 56.5235 6.21508C56.5183 5.04481 56.9019 4.05287 57.6447 3.29941C58.3874 2.51594 59.3408 2.15165 60.5047 2.14652L60.5086 3.04673C59.6432 3.05054 58.9282 3.35377 58.3639 3.9564C57.7995 4.55904 57.5044 5.31053 57.5085 6.24075C57.5124 7.14096 57.8143 7.91983 58.384 8.51747C58.9536 9.11511 59.6712 9.41203 60.5367 9.40822L60.5404 10.2484Z" fill="white"/>
<path fill-rule="evenodd" clip-rule="evenodd" d="M38.2462 10.1365L38.2159 3.26491L34.9629 3.27924L34.959 2.37903L42.4199 2.34617L42.4238 3.24638L39.1709 3.2607L39.2011 10.1323L38.2462 10.1365Z" fill="white"/>
<path fill-rule="evenodd" clip-rule="evenodd" d="M82.3512 2.20049L77.1199 0.243042L77.1244 1.26328L81.8775 3.07281L81.9078 9.94441L82.8628 9.9402L82.8325 3.0686L87.5696 1.21727L87.4756 0.197429L82.3512 2.20049Z" fill="white"/>
<path fill-rule="evenodd" clip-rule="evenodd" d="M117.267 20.1611L117.264 19.5746L117.622 19.573C117.801 19.5722 117.92 19.5184 118.039 19.3579C118.128 19.1976 118.187 19.0373 118.185 18.7174C118.184 18.4508 118.123 18.2378 118.033 18.0782C117.943 17.9187 117.823 17.8659 117.645 17.8667L117.287 17.8683L117.284 17.2817L117.672 17.28C117.94 17.2788 118.179 17.3844 118.33 17.6504C118.48 17.9163 118.571 18.2359 118.573 18.6624C118.574 19.0356 118.516 19.3558 118.398 19.6229C118.28 19.8901 118.102 20.0508 117.923 20.1049L118.649 22.3411L118.261 22.3429L117.535 20.1066L117.267 20.1078L117.267 20.1611ZM120.946 22.3844L120.923 17.2657L121.281 17.2641L121.304 22.3828L120.946 22.3844ZM123.929 22.3712L123.907 17.3059L126.144 17.2961L126.147 17.8825L124.267 17.8908L124.274 19.3838L125.407 19.3788L125.41 19.9653L124.276 19.9703L124.284 21.7831L126.283 21.7743L126.286 22.3608L123.929 22.3712ZM128.281 21.6056L128.488 21.0714C128.698 21.3371 128.907 21.5495 129.117 21.7085C129.326 21.8676 129.535 21.9199 129.774 21.9189C130.043 21.9177 130.251 21.8102 130.399 21.5962C130.547 21.3823 130.636 21.1153 130.635 20.8487C130.633 20.5821 130.573 20.4224 130.453 20.263C130.333 20.1036 130.183 19.9976 129.974 19.9985C129.915 19.9988 129.855 19.999 129.765 19.9461C129.288 19.8949 128.989 19.7895 128.809 19.6304C128.69 19.5243 128.57 19.3648 128.509 19.2051C128.449 19.0455 128.418 18.8323 128.417 18.619C128.415 18.1925 128.503 17.8722 128.711 17.6047C128.919 17.3371 129.187 17.2293 129.515 17.2279C129.753 17.2268 129.992 17.2791 130.202 17.4381C130.441 17.597 130.651 17.7561 130.861 18.0751L130.655 18.6092C130.474 18.3434 130.295 18.1842 130.115 18.025C129.936 17.9192 129.726 17.8135 129.517 17.8144C129.309 17.8153 129.13 17.8694 128.981 18.03C128.833 18.1906 128.774 18.3509 128.775 18.5641C128.775 18.6708 128.776 18.7241 128.806 18.8306C128.836 18.8838 128.866 18.9903 128.896 19.0435C129.016 19.2029 129.255 19.3085 129.644 19.3601C129.823 19.3593 129.972 19.412 130.061 19.4116C130.36 19.4636 130.569 19.6226 130.75 19.8884C130.93 20.1542 130.991 20.4739 130.993 20.9005C130.995 21.3803 130.877 21.7541 130.64 22.0751C130.403 22.396 130.105 22.5573 129.747 22.5589C129.479 22.56 129.21 22.5079 128.971 22.349C128.731 22.1368 128.491 21.8712 128.281 21.6056ZM117.254 17.3352L117.257 17.9217L116.362 17.9256L116.369 19.5785L117.264 19.5746L117.267 20.1611L116.372 20.1651L116.382 22.4045L116.024 22.406L116.001 17.3407L117.254 17.3352ZM112.206 22.5295L112.203 21.943C112.531 21.9415 112.799 21.7271 113.006 21.3529C113.213 20.9788 113.3 20.4452 113.298 19.8587C113.295 19.2721 113.203 18.7394 112.993 18.367C112.782 17.9947 112.513 17.7826 112.185 17.7841L112.182 17.1976C112.6 17.1957 112.959 17.4608 113.23 17.9394C113.5 18.4181 113.652 19.0573 113.656 19.8571C113.659 20.6035 113.513 21.2441 113.247 21.7784C112.98 22.3128 112.623 22.5276 112.206 22.5295ZM112.183 17.2509L112.185 17.8374C111.857 17.8388 111.589 18.0533 111.382 18.4275C111.175 18.8016 111.088 19.3352 111.091 19.9217C111.093 20.5082 111.185 20.9877 111.395 21.4133C111.606 21.7856 111.875 21.9977 112.203 21.9963L112.206 22.5828C111.788 22.5847 111.429 22.3196 111.159 21.8409C110.888 21.3622 110.736 20.7231 110.733 19.9233C110.729 19.1768 110.876 18.5363 111.142 18.0019C111.408 17.4676 111.765 17.2527 112.183 17.2509ZM82.9346 21.1654L82.932 20.5789L83.5585 20.5762L82.9222 18.3395L82.9184 17.4864L83.0676 17.4858L84.492 22.5449L84.1042 22.5466L83.7102 21.162L82.9346 21.1654ZM88.9298 20.9258L89.2297 21.2977C89.1123 21.7248 88.935 22.0988 88.6972 22.3131C88.4595 22.5274 88.2216 22.6885 87.9233 22.6898C87.5056 22.6916 87.1465 22.4266 86.8759 21.9479C86.6053 21.4692 86.4533 20.83 86.4498 20.0303C86.4465 19.2838 86.5928 18.6433 86.859 18.1089C87.1253 17.6278 87.4821 17.3597 87.8998 17.3579C88.1683 17.3567 88.4074 17.4622 88.6171 17.6746C88.8269 17.887 89.0071 18.1528 89.1579 18.5254L88.8612 18.8999C88.7703 18.5804 88.65 18.3676 88.4703 18.2085C88.2906 18.0493 88.1112 17.9434 87.9024 17.9444C87.5742 17.9458 87.3067 18.1603 87.0995 18.5344C86.8923 18.9086 86.8052 19.4422 86.8078 20.0287C86.8103 20.6152 86.902 21.0947 87.1127 21.5203C87.3231 21.8926 87.5925 22.1047 87.9207 22.1032C88.1295 22.1023 88.3379 21.9948 88.5159 21.7807C88.694 21.5666 88.8419 21.2994 88.9298 20.9258ZM93.8818 20.904L94.1818 21.2759C94.0643 21.7029 93.887 22.077 93.6493 22.2913C93.4115 22.5056 93.1736 22.6666 92.8753 22.668C92.4576 22.6698 92.0985 22.4048 91.8279 21.9261C91.5573 21.4474 91.4053 20.8082 91.4018 20.0084C91.3985 19.262 91.5449 18.6215 91.811 18.0871C92.0774 17.606 92.4342 17.3379 92.8518 17.336C93.1203 17.3349 93.3594 17.4404 93.5692 17.6528C93.7789 17.8651 93.9591 18.131 94.1099 18.5036L93.8132 18.8781C93.7223 18.5586 93.602 18.3458 93.4223 18.1866C93.2427 18.0275 93.0632 17.9216 92.8544 17.9225C92.5262 17.924 92.2587 18.1385 92.0515 18.5126C91.8443 18.8868 91.7572 19.4204 91.7598 20.0069C91.7624 20.5934 91.854 21.0728 92.0647 21.4985C92.2751 21.8708 92.5446 22.0829 92.8727 22.0814C93.0815 22.0805 93.2899 21.973 93.4679 21.7589C93.6161 21.545 93.7641 21.2777 93.8818 20.904ZM96.5438 22.4918L96.5215 17.4265L98.7589 17.4167L98.7615 18.0032L96.8821 18.0114L96.8887 19.5044L98.0223 19.4994L98.0248 20.0859L96.8912 20.0909L96.8992 21.9037L98.8979 21.8949L98.9005 22.4815L96.5438 22.4918ZM100.896 21.7262L101.102 21.1921C101.312 21.4577 101.522 21.6701 101.732 21.8291C101.941 21.9882 102.15 22.0406 102.389 22.0395C102.657 22.0383 102.866 21.9308 103.014 21.7169C103.162 21.5029 103.25 21.2359 103.249 20.9693C103.248 20.7027 103.188 20.543 103.068 20.3836C102.948 20.2242 102.798 20.1182 102.589 20.1191C102.53 20.1194 102.47 20.1197 102.38 20.0667C101.903 20.0155 101.604 19.9102 101.424 19.751C101.304 19.6449 101.184 19.4855 101.124 19.3258C101.064 19.1661 101.033 18.9529 101.032 18.7397C101.03 18.3131 101.118 17.9928 101.326 17.7253C101.533 17.4578 101.801 17.3499 102.13 17.3485C102.368 17.3474 102.607 17.3997 102.817 17.5588C103.056 17.7177 103.266 17.8767 103.476 18.1957L103.269 18.7298C103.089 18.464 102.909 18.3048 102.73 18.1456C102.55 18.0398 102.341 17.9341 102.132 17.935C101.923 17.9359 101.745 17.99 101.596 18.1506C101.448 18.3113 101.389 18.4715 101.39 18.6847C101.39 18.7914 101.39 18.8447 101.421 18.9512C101.451 19.0044 101.481 19.1109 101.511 19.1641C101.631 19.3235 101.87 19.4291 102.258 19.4807C102.437 19.4799 102.587 19.5326 102.676 19.5322C102.975 19.5842 103.184 19.7432 103.364 20.0091C103.545 20.2749 103.606 20.5945 103.608 21.0211C103.61 21.501 103.492 21.8747 103.255 22.1957C103.017 22.5167 102.72 22.6779 102.362 22.6795C102.093 22.6807 101.825 22.6285 101.585 22.4696C101.346 22.2574 101.136 21.9917 100.896 21.7262ZM105.788 21.7046L105.995 21.1705C106.205 21.4362 106.415 21.6486 106.624 21.8076C106.834 21.9666 107.043 22.019 107.281 22.018C107.55 22.0168 107.758 21.9092 107.906 21.6953C108.055 21.4814 108.143 21.2144 108.142 20.9478C108.14 20.6812 108.08 20.5215 107.96 20.3621C107.84 20.2026 107.69 20.0966 107.482 20.0976C107.422 20.0978 107.362 20.0981 107.273 20.0452C106.795 19.994 106.496 19.8886 106.317 19.7295C106.197 19.6233 106.077 19.4639 106.016 19.3042C105.956 19.1445 105.925 18.9314 105.924 18.7181C105.922 18.2916 106.01 17.9712 106.218 17.7037C106.426 17.4362 106.694 17.3284 107.022 17.3269C107.261 17.3259 107.499 17.3782 107.709 17.5372C107.948 17.6961 108.158 17.8552 108.368 18.1742L108.162 18.7083C107.981 18.4425 107.802 18.2833 107.622 18.1241C107.443 18.0182 107.233 17.9125 107.025 17.9135C106.816 17.9144 106.637 17.9685 106.488 18.1291C106.34 18.2897 106.281 18.4499 106.282 18.6632C106.282 18.7698 106.283 18.8232 106.313 18.9297C106.343 18.9829 106.373 19.0894 106.403 19.1426C106.523 19.302 106.763 19.4076 107.151 19.4592C107.33 19.4584 107.479 19.5111 107.569 19.5107C107.867 19.5627 108.077 19.7217 108.257 19.9875C108.437 20.2533 108.498 20.573 108.5 20.9995C108.502 21.4794 108.384 21.8532 108.147 22.1741C107.91 22.4951 107.612 22.6564 107.254 22.6579C106.986 22.6591 106.717 22.607 106.478 22.4481C106.238 22.2359 106.028 21.9702 105.788 21.7046ZM82.9184 17.4864L82.9222 18.3395L82.3056 20.5817L82.932 20.5789L82.9346 21.1654L82.159 21.1689L81.7773 22.5569L81.3895 22.5586L82.7692 17.4871L82.9184 17.4864ZM74.4097 22.7493L74.4071 22.1628C74.5264 22.1622 74.6455 22.1084 74.7643 22.0012C74.913 21.8939 75.0615 21.7333 75.2095 21.4661L74.4266 19.8166L74.4223 18.8569L75.4462 21.0385C75.5054 20.9316 75.5646 20.8247 75.6238 20.7178C75.6532 20.611 75.7126 20.5574 75.742 20.4507L75.983 20.9828C75.9536 21.0896 75.8944 21.1965 75.8648 21.2499C75.8056 21.3568 75.776 21.4103 75.7168 21.5172L76.2287 22.5813L75.7812 22.5833L75.4502 21.9449C75.2724 22.2123 75.0645 22.4265 74.9161 22.5871C74.7075 22.6413 74.5586 22.6953 74.4097 22.7493ZM74.389 18.0572L74.3866 17.524L75.1622 17.5206L75.3734 18.0529L74.389 18.0572ZM74.3866 17.524L74.389 18.0572L74.031 18.0588L74.3923 18.8037L74.3965 19.7634L74.3063 19.6038C74.0684 19.7649 73.8903 19.9789 73.7722 20.246C73.6538 20.4598 73.5955 20.78 73.5967 21.0466C73.5981 21.3665 73.6589 21.6329 73.7792 21.8456C73.8995 22.0584 74.0789 22.1642 74.2579 22.1634C74.2877 22.1633 74.3176 22.1632 74.3772 22.1629L74.3798 22.7494C74.35 22.7496 74.3202 22.7497 74.2903 22.7498C73.9622 22.7513 73.7228 22.5924 73.5128 22.3267C73.3324 22.0076 73.2115 21.6348 73.2094 21.155C73.2077 20.7817 73.2657 20.4082 73.4135 20.0877C73.5612 19.7671 73.7689 19.4996 74.066 19.2317L73.2831 17.5822L74.3869 17.5773L74.3866 17.524ZM56.2057 21.2832L56.2031 20.6967L56.8296 20.6939L56.1932 18.4573L56.1895 17.6042L56.3386 17.6035L57.763 22.6627L57.3752 22.6644L56.9813 21.2798L56.2057 21.2832ZM59.9407 22.6531L59.9184 17.5878L60.2764 17.5862L60.2853 19.6123L61.9559 19.6049L61.9469 17.5788L62.3049 17.5772L62.3272 22.6426L61.9693 22.6441L61.9582 20.1381L60.2877 20.1455L60.2987 22.6515L59.9407 22.6531ZM64.6508 21.8858L64.8573 21.3517C65.0673 21.6174 65.277 21.8298 65.4865 21.9888C65.6961 22.1478 65.9051 22.2002 66.1438 22.1992C66.4123 22.198 66.6206 22.0904 66.7688 21.8765C66.917 21.6626 67.0054 21.3956 67.0042 21.129C67.003 20.8624 66.9426 20.7027 66.8226 20.5433C66.7026 20.3838 66.553 20.2778 66.3441 20.2788C66.2845 20.279 66.2248 20.2793 66.1351 20.2264C65.6575 20.1752 65.3588 20.0698 65.1791 19.9106C65.0593 19.8045 64.9392 19.6451 64.8789 19.4854C64.8185 19.3257 64.7877 19.1126 64.7868 18.8993C64.7849 18.4728 64.873 18.1524 65.0807 17.8849C65.2883 17.6174 65.5563 17.5096 65.8845 17.5081C66.1231 17.5071 66.362 17.5594 66.5715 17.7184C66.8109 17.8773 67.0204 18.0364 67.2306 18.3553L67.0242 18.8895C66.844 18.6237 66.6643 18.4645 66.4846 18.3053C66.3052 18.1994 66.0959 18.0937 65.887 18.0947C65.6782 18.0956 65.4995 18.1497 65.351 18.3103C65.2026 18.4709 65.1436 18.6311 65.1445 18.8444C65.145 18.951 65.1452 19.0044 65.1755 19.1109C65.2056 19.164 65.2359 19.2706 65.266 19.3238C65.386 19.4832 65.6251 19.5888 66.0132 19.6404C66.1922 19.6396 66.3416 19.6923 66.431 19.6919C66.7296 19.7439 66.9391 19.9029 67.1193 20.1687C67.2994 20.4345 67.3605 20.7542 67.3624 21.1807C67.3645 21.6606 67.2468 22.0344 67.0096 22.3553C66.7723 22.6763 66.4747 22.8376 66.1168 22.8391C65.8483 22.8403 65.5796 22.7882 65.3402 22.6293C65.1006 22.4171 64.8608 22.1515 64.6508 21.8858ZM56.1895 17.6042L56.1932 18.4573L55.5767 20.6994L56.2031 20.6967L56.2057 21.2832L55.4002 21.2867L55.0185 22.6748L54.6307 22.6765L56.0105 17.605L56.1895 17.6042ZM46.3977 22.8193L46.3952 22.2328C46.7233 22.2314 46.9908 22.0169 47.198 21.6428C47.4052 21.2686 47.4923 20.735 47.4898 20.1485C47.4872 19.562 47.3953 19.0292 47.1849 18.6569C46.9744 18.2846 46.705 18.0725 46.3768 18.074L46.3743 17.4874C46.7919 17.4856 47.151 17.7506 47.4216 18.2293C47.6922 18.708 47.8442 19.3472 47.8477 20.1469C47.851 20.8934 47.7047 21.5339 47.4386 22.0683C47.1724 22.6027 46.8154 22.8175 46.3977 22.8193ZM50.2455 22.6958L50.2232 17.6305L50.5812 17.6289L50.5922 20.1349L52.2219 17.6217L52.6694 17.6197L51.5438 19.4375L52.8707 22.6842L52.4232 22.6862L51.2772 19.8652L50.5955 20.8813L50.6035 22.6942L50.2455 22.6958ZM46.3745 17.5408L46.3771 18.1273C46.0489 18.1287 45.7814 18.3432 45.5742 18.7173C45.367 19.0915 45.2799 19.6251 45.2825 20.2116C45.2851 20.7981 45.3767 21.2776 45.5874 21.7032C45.7978 22.0755 46.0672 22.2876 46.3954 22.2861L46.398 22.8727C45.9803 22.8745 45.6212 22.6095 45.3506 22.1308C45.08 21.6521 44.928 21.0129 44.9245 20.2132C44.9212 19.4667 45.0675 18.8262 45.3337 18.2918C45.5998 17.7574 45.9569 17.5426 46.3745 17.5408ZM41.2966 22.8418L41.294 22.2553C41.6221 22.2539 41.8897 22.0394 42.0969 21.6653C42.304 21.2911 42.3912 20.7575 42.3886 20.171C42.386 19.5845 42.2942 19.0517 42.0837 18.6794C41.8732 18.3071 41.6038 18.095 41.2757 18.0964L41.2731 17.5099C41.6907 17.5081 42.0499 17.7731 42.3205 18.2518C42.5911 18.7305 42.743 19.3696 42.7466 20.1694C42.7499 20.9159 42.6035 21.5564 42.3374 22.0908C42.1011 22.625 41.744 22.8398 41.2966 22.8418ZM35.0613 22.7627L35.039 17.6973L35.397 17.6958L35.4059 19.7219L37.0765 19.7145L37.0676 17.6884L37.4255 17.6868L37.4479 22.7521L37.0899 22.7537L37.0788 20.2477L35.4083 20.2551L35.4193 22.7611L35.0613 22.7627ZM41.2733 17.5632L41.2759 18.1497C40.9478 18.1512 40.6802 18.3657 40.473 18.7398C40.2659 19.114 40.1787 19.6475 40.1813 20.234C40.1839 20.8206 40.2755 21.3 40.4862 21.7257C40.6967 22.098 40.9661 22.3101 41.2942 22.3086L41.2968 22.8951C40.8792 22.897 40.52 22.632 40.2494 22.1533C39.9788 21.6746 39.8269 21.0354 39.8233 20.2356C39.82 19.4892 39.9664 18.8487 40.2325 18.3143C40.5285 17.7798 40.8557 17.5651 41.2733 17.5632Z" fill="white"/>
<path fill-rule="evenodd" clip-rule="evenodd" d="M35.0613 22.7627L35.039 17.6973L35.397 17.6958L35.4059 19.7219L37.0765 19.7145L37.0676 17.6884L37.4255 17.6868L37.4479 22.7521L37.0899 22.7537L37.0788 20.2477L35.4083 20.2551L35.4193 22.7611L35.0613 22.7627ZM41.294 22.2553C41.6221 22.2539 41.8897 22.0394 42.0969 21.6653C42.304 21.2911 42.3912 20.7575 42.3886 20.171C42.386 19.5845 42.2942 19.0517 42.0837 18.6794C41.8732 18.3071 41.6038 18.095 41.2757 18.0964C40.9475 18.0979 40.68 18.3123 40.4728 18.6865C40.2656 19.0606 40.1785 19.5942 40.1811 20.1807C40.1837 20.7672 40.2753 21.2467 40.486 21.6724C40.7265 22.0979 40.9957 22.2566 41.294 22.2553ZM41.2966 22.8418C40.8789 22.8436 40.5198 22.5786 40.2492 22.1C39.9786 21.6213 39.8266 20.9821 39.8231 20.1823C39.8198 19.4358 39.9661 18.7953 40.2323 18.261C40.4986 17.7799 40.8554 17.5117 41.2731 17.5099C41.6907 17.5081 42.0499 17.7731 42.3205 18.2518C42.5911 18.7305 42.743 19.3696 42.7466 20.1694C42.7499 20.9159 42.6035 21.5564 42.3374 22.0908C42.1011 22.625 41.744 22.8398 41.2966 22.8418ZM46.3952 22.2328C46.7233 22.2314 46.9908 22.0169 47.198 21.6428C47.4052 21.2686 47.4923 20.735 47.4898 20.1485C47.4872 19.562 47.3953 19.0292 47.1849 18.6569C46.9744 18.2846 46.705 18.0725 46.3768 18.074C46.0487 18.0754 45.7812 18.2898 45.574 18.664C45.3668 19.0382 45.2797 19.5717 45.2822 20.1582C45.2848 20.7448 45.3764 21.2243 45.5871 21.6499C45.8277 22.0754 46.067 22.2343 46.3952 22.2328ZM46.3977 22.8193C45.9801 22.8212 45.621 22.5562 45.3504 22.0775C45.0798 21.5988 44.9278 20.9596 44.9243 20.1598C44.921 19.4134 45.0673 18.7729 45.3334 18.2385C45.5998 17.7574 45.9566 17.4893 46.3743 17.4874C46.7919 17.4856 47.151 17.7506 47.4216 18.2293C47.6922 18.708 47.8442 19.3472 47.8477 20.1469C47.851 20.8934 47.7047 21.5339 47.4386 22.0683C47.1724 22.6027 46.8154 22.8175 46.3977 22.8193ZM50.2455 22.6958L50.2232 17.6305L50.5812 17.6289L50.5922 20.1349L52.2219 17.6217L52.6694 17.6197L51.5438 19.4375L52.8707 22.6842L52.4232 22.6862L51.2772 19.8652L50.5955 20.8813L50.6035 22.6942L50.2455 22.6958ZM55.5767 20.6994L56.8296 20.6939L56.1932 18.4573L55.5767 20.6994ZM54.6606 22.6763L56.0403 17.6048L56.3386 17.6035L57.763 22.6627L57.3752 22.6644L56.9813 21.2798L55.4002 21.2867L55.0185 22.6748L54.6606 22.6763ZM59.9407 22.6531L59.9184 17.5878L60.2764 17.5862L60.2853 19.6123L61.9559 19.6049L61.9469 17.5788L62.3049 17.5772L62.3272 22.6426L61.9693 22.6441L61.9582 20.1381L60.2877 20.1455L60.2987 22.6515L59.9407 22.6531ZM64.6508 21.8858L64.8573 21.3517C65.0673 21.6174 65.277 21.8298 65.4865 21.9888C65.6961 22.1478 65.9051 22.2002 66.1438 22.1992C66.4123 22.198 66.6206 22.0904 66.7688 21.8765C66.917 21.6626 67.0054 21.3956 67.0042 21.129C67.003 20.8624 66.9426 20.7027 66.8226 20.5433C66.7026 20.3838 66.553 20.2778 66.3441 20.2788C66.2845 20.279 66.2248 20.2793 66.1351 20.2264C65.6575 20.1752 65.3588 20.0698 65.1791 19.9106C65.0593 19.8045 64.9392 19.6451 64.8789 19.4854C64.8185 19.3257 64.7877 19.1126 64.7868 18.8993C64.7849 18.4728 64.873 18.1524 65.0807 17.8849C65.2883 17.6174 65.5563 17.5096 65.8845 17.5081C66.1231 17.5071 66.362 17.5594 66.5715 17.7184C66.8109 17.8773 67.0204 18.0364 67.2306 18.3553L67.0242 18.8895C66.844 18.6237 66.6643 18.4645 66.4846 18.3053C66.3052 18.1994 66.0959 18.0937 65.887 18.0947C65.6782 18.0956 65.4995 18.1497 65.351 18.3103C65.2026 18.4709 65.1436 18.6311 65.1445 18.8444C65.145 18.951 65.1452 19.0044 65.1755 19.1109C65.2056 19.164 65.2359 19.2706 65.266 19.3238C65.386 19.4832 65.6251 19.5888 66.0132 19.6404C66.1922 19.6396 66.3416 19.6923 66.431 19.6919C66.7296 19.7439 66.9391 19.9029 67.1193 20.1687C67.2994 20.4345 67.3605 20.7542 67.3624 21.1807C67.3645 21.6606 67.2468 22.0344 67.0096 22.3553C66.7723 22.6763 66.4747 22.8376 66.1168 22.8391C65.8483 22.8403 65.5796 22.7882 65.3402 22.6293C65.1006 22.4171 64.8608 22.1515 64.6508 21.8858ZM75.2095 21.4661L74.3364 19.6571C74.0984 19.8181 73.9204 20.0321 73.8022 20.2992C73.6838 20.513 73.6256 20.8332 73.6268 21.0998C73.6282 21.4197 73.689 21.686 73.8093 21.8988C73.9295 22.1115 74.109 22.2174 74.288 22.2166C74.4371 22.216 74.5861 22.162 74.7347 22.0547C74.9128 21.8406 75.0612 21.68 75.2095 21.4661ZM75.9529 20.9296C75.9235 21.0364 75.8643 21.1433 75.8347 21.1967C75.7756 21.3036 75.746 21.3571 75.6868 21.464L76.1986 22.5281L75.7511 22.5301L75.4202 21.8917C75.2423 22.1591 75.0345 22.3733 74.886 22.5339C74.7075 22.6413 74.529 22.7488 74.35 22.7496C74.0218 22.751 73.7825 22.5921 73.5725 22.3264C73.3921 22.0073 73.2711 21.6346 73.269 21.1547C73.2674 20.7815 73.3254 20.408 73.4731 20.0874C73.6209 19.7668 73.8285 19.4993 74.1257 19.2314L73.3428 17.5819L75.1923 17.5738L75.4035 18.1061L74.0611 18.112L75.4761 21.0383C75.5353 20.9314 75.5944 20.8246 75.6536 20.7177C75.683 20.6109 75.7424 20.5573 75.7718 20.4505L75.9529 20.9296ZM82.3056 20.5817L83.5585 20.5762L82.9222 18.3395L82.3056 20.5817ZM81.4193 22.5585L82.7991 17.487L83.0974 17.4857L84.5218 22.5448L84.134 22.5465L83.7401 21.1619L82.159 21.1689L81.7773 22.5569L81.4193 22.5585ZM88.9298 20.9258L89.2297 21.2977C89.1123 21.7248 88.935 22.0988 88.6972 22.3131C88.4595 22.5274 88.2216 22.6885 87.9233 22.6898C87.5056 22.6916 87.1465 22.4266 86.8759 21.9479C86.6053 21.4692 86.4533 20.83 86.4498 20.0303C86.4465 19.2838 86.5928 18.6433 86.859 18.1089C87.1253 17.6278 87.4821 17.3597 87.8998 17.3579C88.1683 17.3567 88.4074 17.4622 88.6171 17.6746C88.8269 17.887 89.0071 18.1528 89.1579 18.5254L88.8612 18.8999C88.7703 18.5804 88.65 18.3676 88.4703 18.2085C88.2906 18.0493 88.1112 17.9434 87.9024 17.9444C87.5742 17.9458 87.3067 18.1603 87.0995 18.5344C86.8923 18.9086 86.8052 19.4422 86.8078 20.0287C86.8103 20.6152 86.902 21.0947 87.1127 21.5203C87.3231 21.8926 87.5925 22.1047 87.9207 22.1032C88.1295 22.1023 88.3379 21.9948 88.5159 21.7807C88.694 21.5666 88.8419 21.2994 88.9298 20.9258ZM93.8818 20.904L94.1818 21.2759C94.0643 21.7029 93.887 22.077 93.6493 22.2913C93.4115 22.5056 93.1736 22.6666 92.8753 22.668C92.4576 22.6698 92.0985 22.4048 91.8279 21.9261C91.5573 21.4474 91.4053 20.8082 91.4018 20.0084C91.3985 19.262 91.5449 18.6215 91.811 18.0871C92.0774 17.606 92.4342 17.3379 92.8518 17.336C93.1203 17.3349 93.3594 17.4404 93.5692 17.6528C93.7789 17.8651 93.9591 18.131 94.1099 18.5036L93.8132 18.8781C93.7223 18.5586 93.602 18.3458 93.4223 18.1866C93.2427 18.0275 93.0632 17.9216 92.8544 17.9225C92.5262 17.924 92.2587 18.1385 92.0515 18.5126C91.8443 18.8868 91.7572 19.4204 91.7598 20.0069C91.7624 20.5934 91.854 21.0728 92.0647 21.4985C92.2751 21.8708 92.5446 22.0829 92.8727 22.0814C93.0815 22.0805 93.2899 21.973 93.4679 21.7589C93.6161 21.545 93.7641 21.2777 93.8818 20.904ZM96.5438 22.4918L96.5215 17.4265L98.7589 17.4167L98.7615 18.0032L96.8821 18.0114L96.8887 19.5044L98.0223 19.4994L98.0248 20.0859L96.8912 20.0909L96.8992 21.9037L98.8979 21.8949L98.9005 22.4815L96.5438 22.4918ZM100.896 21.7262L101.102 21.1921C101.312 21.4577 101.522 21.6701 101.732 21.8291C101.941 21.9882 102.15 22.0406 102.389 22.0395C102.657 22.0383 102.866 21.9308 103.014 21.7169C103.162 21.5029 103.25 21.2359 103.249 20.9693C103.248 20.7027 103.188 20.543 103.068 20.3836C102.948 20.2242 102.798 20.1182 102.589 20.1191C102.53 20.1194 102.47 20.1197 102.38 20.0667C101.903 20.0155 101.604 19.9102 101.424 19.751C101.304 19.6449 101.184 19.4855 101.124 19.3258C101.064 19.1661 101.033 18.9529 101.032 18.7397C101.03 18.3131 101.118 17.9928 101.326 17.7253C101.533 17.4578 101.801 17.3499 102.13 17.3485C102.368 17.3474 102.607 17.3997 102.817 17.5588C103.056 17.7177 103.266 17.8767 103.476 18.1957L103.269 18.7298C103.089 18.464 102.909 18.3048 102.73 18.1456C102.55 18.0398 102.341 17.9341 102.132 17.935C101.923 17.9359 101.745 17.99 101.596 18.1506C101.448 18.3113 101.389 18.4715 101.39 18.6847C101.39 18.7914 101.39 18.8447 101.421 18.9512C101.451 19.0044 101.481 19.1109 101.511 19.1641C101.631 19.3235 101.87 19.4291 102.258 19.4807C102.437 19.4799 102.587 19.5326 102.676 19.5322C102.975 19.5842 103.184 19.7432 103.364 20.0091C103.545 20.2749 103.606 20.5945 103.608 21.0211C103.61 21.501 103.492 21.8747 103.255 22.1957C103.017 22.5167 102.72 22.6779 102.362 22.6795C102.093 22.6807 101.825 22.6285 101.585 22.4696C101.346 22.2574 101.136 21.9917 100.896 21.7262ZM105.788 21.7046L105.995 21.1705C106.205 21.4362 106.415 21.6486 106.624 21.8076C106.834 21.9666 107.043 22.019 107.281 22.018C107.55 22.0168 107.758 21.9092 107.906 21.6953C108.055 21.4814 108.143 21.2144 108.142 20.9478C108.14 20.6812 108.08 20.5215 107.96 20.3621C107.84 20.2026 107.69 20.0966 107.482 20.0976C107.422 20.0978 107.362 20.0981 107.273 20.0452C106.795 19.994 106.496 19.8886 106.317 19.7295C106.197 19.6233 106.077 19.4639 106.016 19.3042C105.956 19.1445 105.925 18.9314 105.924 18.7181C105.922 18.2916 106.01 17.9712 106.218 17.7037C106.426 17.4362 106.694 17.3284 107.022 17.3269C107.261 17.3259 107.499 17.3782 107.709 17.5372C107.948 17.6961 108.158 17.8552 108.368 18.1742L108.162 18.7083C107.981 18.4425 107.802 18.2833 107.622 18.1241C107.443 18.0182 107.233 17.9125 107.025 17.9135C106.816 17.9144 106.637 17.9685 106.488 18.1291C106.34 18.2897 106.281 18.4499 106.282 18.6632C106.282 18.7698 106.283 18.8232 106.313 18.9297C106.343 18.9829 106.373 19.0894 106.403 19.1426C106.523 19.302 106.763 19.4076 107.151 19.4592C107.33 19.4584 107.479 19.5111 107.569 19.5107C107.867 19.5627 108.077 19.7217 108.257 19.9875C108.437 20.2533 108.498 20.573 108.5 20.9995C108.502 21.4794 108.384 21.8532 108.147 22.1741C107.91 22.4951 107.612 22.6564 107.254 22.6579C106.986 22.6591 106.717 22.607 106.478 22.4481C106.238 22.2359 106.028 21.9702 105.788 21.7046ZM112.203 21.943C112.531 21.9415 112.799 21.7271 113.006 21.3529C113.213 20.9788 113.3 20.4452 113.298 19.8587C113.295 19.2721 113.203 18.7394 112.993 18.367C112.782 17.9947 112.513 17.7826 112.185 17.7841C111.857 17.7855 111.589 18 111.382 18.3741C111.175 18.7483 111.088 19.2819 111.09 19.8684C111.093 20.4549 111.184 20.9344 111.395 21.36C111.636 21.7855 111.875 21.9444 112.203 21.943ZM112.206 22.5295C111.788 22.5313 111.429 22.2663 111.158 21.7876C110.888 21.3089 110.736 20.6697 110.732 19.87C110.729 19.1235 110.875 18.483 111.141 17.9486C111.408 17.4676 111.765 17.1994 112.182 17.1976C112.6 17.1957 112.959 17.4608 113.23 17.9394C113.5 18.4181 113.652 19.0573 113.656 19.8571C113.659 20.6035 113.513 21.2441 113.247 21.7784C112.98 22.3128 112.623 22.5276 112.206 22.5295ZM116.369 19.5785L117.622 19.573C117.801 19.5722 117.92 19.5184 118.039 19.3579C118.128 19.1976 118.187 19.0373 118.185 18.7174C118.184 18.4508 118.123 18.2378 118.033 18.0782C117.943 17.9187 117.823 17.8659 117.645 17.8667L116.362 17.8723L116.369 19.5785V19.5785ZM116.054 22.4059L116.031 17.3406L117.672 17.3334C117.94 17.3322 118.18 17.4377 118.33 17.7037C118.48 17.9696 118.571 18.2892 118.573 18.7157C118.575 19.0889 118.516 19.4091 118.398 19.6762C118.28 19.9434 118.102 20.1041 117.923 20.1582L118.649 22.3945L118.261 22.3962L117.535 20.1599L116.432 20.1648L116.441 22.4042L116.054 22.4059ZM120.946 22.3844L120.923 17.2657L121.281 17.2641L121.304 22.3828L120.946 22.3844ZM123.929 22.3712L123.907 17.3059L126.144 17.2961L126.147 17.8825L124.267 17.8908L124.274 19.3838L125.407 19.3788L125.41 19.9653L124.276 19.9703L124.284 21.7831L126.283 21.7743L126.286 22.3608L123.929 22.3712ZM128.281 21.6056L128.488 21.0714C128.698 21.3371 128.907 21.5495 129.117 21.7085C129.326 21.8676 129.535 21.9199 129.774 21.9189C130.043 21.9177 130.251 21.8102 130.399 21.5962C130.547 21.3823 130.636 21.1153 130.635 20.8487C130.633 20.5821 130.573 20.4224 130.453 20.263C130.333 20.1036 130.183 19.9976 129.974 19.9985C129.915 19.9988 129.855 19.999 129.765 19.9461C129.288 19.8949 128.989 19.7895 128.809 19.6304C128.69 19.5243 128.57 19.3648 128.509 19.2051C128.449 19.0455 128.418 18.8323 128.417 18.619C128.415 18.1925 128.503 17.8722 128.711 17.6047C128.919 17.3371 129.187 17.2293 129.515 17.2279C129.753 17.2268 129.992 17.2791 130.202 17.4381C130.441 17.597 130.651 17.7561 130.861 18.0751L130.655 18.6092C130.474 18.3434 130.295 18.1842 130.115 18.025C129.936 17.9192 129.726 17.8135 129.517 17.8144C129.309 17.8153 129.13 17.8694 128.981 18.03C128.833 18.1906 128.774 18.3509 128.775 18.5641C128.775 18.6708 128.776 18.7241 128.806 18.8306C128.836 18.8838 128.866 18.9903 128.896 19.0435C129.016 19.2029 129.255 19.3085 129.644 19.3601C129.823 19.3593 129.972 19.412 130.061 19.4116C130.36 19.4636 130.569 19.6226 130.75 19.8884C130.93 20.1542 130.991 20.4739 130.993 20.9005C130.995 21.3803 130.877 21.7541 130.64 22.0751C130.403 22.396 130.105 22.5573 129.747 22.5589C129.479 22.56 129.21 22.5079 128.971 22.349C128.731 22.1368 128.491 21.8712 128.281 21.6056Z" stroke="white" stroke-width="0.7087" stroke-miterlimit="22.9256" stroke-linecap="round" stroke-linejoin="round"/>
</svg>
