<svg width="16" height="16" viewBox="0 0 16 16" fill="none" xmlns="http://www.w3.org/2000/svg">
    <g clip-path="url(#clip0)">
        <path d="M15.9844 4.70404C15.947 3.8539 15.8095 3.26944 15.6125 2.76299C15.4094 2.22541 15.0968 1.74412 14.6873 1.34401C14.2872 0.937683 13.8027 0.621948 13.2714 0.421957C12.762 0.22502 12.1806 0.0875415 11.3305 0.0500586C10.474 0.00940124 10.2021 0 8.02976 0C5.85746 0 5.58556 0.00940124 4.73224 0.0468842C3.8821 0.0843671 3.29763 0.221967 2.79131 0.418783C2.25361 0.621948 1.77231 0.934509 1.37221 1.34401C0.965881 1.74412 0.650268 2.22858 0.450156 2.75994C0.253218 3.26944 0.11574 3.85073 0.0782568 4.70087C0.0375995 5.55736 0.0281982 5.82926 0.0281982 8.00156C0.0281982 10.1739 0.0375995 10.4458 0.0750824 11.2991C0.112565 12.1492 0.250165 12.7337 0.447103 13.2401C0.650268 13.7777 0.965881 14.259 1.37221 14.6591C1.77231 15.0654 2.25678 15.3812 2.78814 15.5812C3.29763 15.7781 3.87892 15.9156 4.72919 15.9531C5.58238 15.9907 5.85441 16 8.02671 16C10.199 16 10.4709 15.9907 11.3242 15.9531C12.1744 15.9156 12.7588 15.7781 13.2652 15.5812C14.3404 15.1654 15.1906 14.3153 15.6063 13.2401C15.8031 12.7306 15.9407 12.1492 15.9782 11.2991C16.0157 10.4458 16.0251 10.1739 16.0251 8.00156C16.0251 5.82926 16.0219 5.55736 15.9844 4.70404ZM14.5436 11.2366C14.5092 12.018 14.3779 12.4399 14.2685 12.7212C13.9997 13.4183 13.4465 13.9715 12.7494 14.2403C12.4681 14.3497 12.0431 14.481 11.2648 14.5153C10.4208 14.5529 10.1677 14.5622 8.03293 14.5622C5.89812 14.5622 5.64184 14.5529 4.80098 14.5153C4.01958 14.481 3.59762 14.3497 3.31631 14.2403C2.96945 14.1121 2.65371 13.909 2.39743 13.6433C2.13176 13.3838 1.92859 13.0713 1.80039 12.7244C1.691 12.4431 1.55975 12.018 1.52544 11.2397C1.48783 10.3958 1.47855 10.1426 1.47855 8.00779C1.47855 5.87297 1.48783 5.6167 1.52544 4.77596C1.55975 3.99455 1.691 3.5726 1.80039 3.29129C1.92859 2.9443 2.13176 2.62869 2.40061 2.37229C2.65994 2.10661 2.9725 1.90345 3.31949 1.77537C3.60079 1.66597 4.02593 1.53472 4.80415 1.50029C5.64807 1.46281 5.90129 1.45341 8.03598 1.45341C10.174 1.45341 10.4271 1.46281 11.2679 1.50029C12.0493 1.53472 12.4713 1.66597 12.7526 1.77537C13.0995 1.90345 13.4152 2.10661 13.6715 2.37229C13.9372 2.63174 14.1403 2.9443 14.2685 3.29129C14.3779 3.5726 14.5092 3.99761 14.5436 4.77596C14.5811 5.61987 14.5905 5.87297 14.5905 8.00779C14.5905 10.1426 14.5811 10.3927 14.5436 11.2366Z" fill="white"/>
        <path d="M8.02949 3.89136C5.76037 3.89136 3.91931 5.73229 3.91931 8.00154C3.91931 10.2708 5.76037 12.1117 8.02949 12.1117C10.2987 12.1117 12.1397 10.2708 12.1397 8.00154C12.1397 5.73229 10.2987 3.89136 8.02949 3.89136ZM8.02949 10.6677C6.5574 10.6677 5.36332 9.47375 5.36332 8.00154C5.36332 6.52932 6.5574 5.33537 8.02949 5.33537C9.5017 5.33537 10.6957 6.52932 10.6957 8.00154C10.6957 9.47375 9.5017 10.6677 8.02949 10.6677Z" fill="white"/>
        <path d="M13.2619 3.72889C13.2619 4.25877 12.8322 4.68842 12.3022 4.68842C11.7723 4.68842 11.3427 4.25877 11.3427 3.72889C11.3427 3.19888 11.7723 2.76935 12.3022 2.76935C12.8322 2.76935 13.2619 3.19888 13.2619 3.72889Z" fill="white"/>
    </g>
    <defs>
        <clipPath id="clip0">
            <rect width="16" height="16" fill="white"/>
        </clipPath>
    </defs>
</svg>
